<svg width="32" height="32" viewBox="0 0 20 32" fill="none" xmlns="http://www.w3.org/2000/svg"><path d="M2.11608 8.9928L10.5519 0.433962C11.1281 -0.196189 11.3353 -0.135764 11.5317 0.587184L11.6072 6.69232C11.5856 7.64618 11.5166 8.05836 11.2295 8.45113L6.10848 13.7297C5.43949 14.5584 5.53012 14.8886 5.50639 15.2576C5.48265 15.6267 6.1538 16.7035 7.31268 16.7855C7.31268 16.7855 10.4483 16.7855 10.7785 16.7855C11.1087 16.7855 11.3396 17.3164 10.7785 17.8646L3.69794 24.9602C2.82177 25.7868 2.32542 25.7846 1.43846 25.4954C0.0767238 24.7315 0.0508271 24.028 0.00334995 22.7979V14.9533C-0.0398111 12.4694 0.316268 11.1444 2.11608 8.9928Z" fill="#FF6100"></path><path d="M17.3929 23.0094L8.70031 31.5661C8.10684 32.1962 7.8932 32.1358 7.6925 31.4128L7.61481 25.3012C7.63639 24.3474 7.7076 23.9352 8.0011 23.5446L13.2797 18.2724C13.9681 17.4438 13.8753 17.1136 13.8991 16.7445C13.9228 16.3755 13.2279 15.2986 12.0367 15.2166H8.46724C8.12842 15.2166 7.88888 14.6858 8.46724 14.1376L15.7571 7.04193C16.6614 6.2154 17.1707 6.21756 18.0857 6.50674C19.4906 7.27069 19.5143 7.97637 19.5596 9.2043V17.051C19.6136 19.5349 19.2467 20.8578 17.3929 23.0094Z" fill="#FF6100"></path></svg>